<?xml version="1.0" encoding="UTF-8" standalone="no"?>
<!DOCTYPE svg PUBLIC "-//W3C//DTD SVG 1.1//EN"
 "http://www.w3.org/Graphics/SVG/1.1/DTD/svg11.dtd">
<!-- Generated by graphviz version 2.43.0 (0)
 -->
<!-- Title: aon Pages: 1 -->
<svg width="2269pt" height="686pt"
 viewBox="0.00 0.00 2269.27 686.30" xmlns="http://www.w3.org/2000/svg" xmlns:xlink="http://www.w3.org/1999/xlink">
<g id="graph0" class="graph" transform="scale(1 1) rotate(0) translate(4 682.3)">
<title>aon</title>
<polygon fill="white" stroke="transparent" points="-4,4 -4,-682.3 2265.27,-682.3 2265.27,4 -4,4"/>
<!-- sop -->
<g id="node1" class="node">
<title>sop</title>
<ellipse fill="none" stroke="black" cx="99.27" cy="-198.13" rx="98.58" ry="18"/>
<text text-anchor="middle" x="99.27" y="-194.43" font-family="Times,serif" font-size="14.00">INICIO 05/03/2021</text>
</g>
<!-- ID01 -->
<g id="node3" class="node">
<title>ID01</title>
<polygon fill="none" stroke="black" points="233.77,-163.63 233.77,-232.63 382.77,-232.63 382.77,-163.63 233.77,-163.63"/>
<text text-anchor="middle" x="259.27" y="-194.43" font-family="Times,serif" font-size="14.00">ID01</text>
<polyline fill="none" stroke="black" points="284.77,-163.63 284.77,-232.63 "/>
<text text-anchor="middle" x="333.77" y="-217.43" font-family="Times,serif" font-size="14.00">t_min=28h</text>
<polyline fill="none" stroke="black" points="284.77,-209.63 382.77,-209.63 "/>
<text text-anchor="middle" x="333.77" y="-194.43" font-family="Times,serif" font-size="14.00">t=40h</text>
<polyline fill="none" stroke="black" points="284.77,-186.63 382.77,-186.63 "/>
<text text-anchor="middle" x="333.77" y="-171.43" font-family="Times,serif" font-size="14.00">t_max=52h</text>
</g>
<!-- sop&#45;&gt;ID01 -->
<g id="edge1" class="edge">
<title>sop&#45;&gt;ID01</title>
<path fill="none" stroke="black" d="M198.26,-198.13C198.26,-198.13 223.69,-198.13 223.69,-198.13"/>
<polygon fill="black" stroke="black" points="223.69,-201.63 233.69,-198.13 223.69,-194.63 223.69,-201.63"/>
</g>
<!-- eop -->
<g id="node2" class="node">
<title>eop</title>
<ellipse fill="none" stroke="black" cx="2177.27" cy="-239.13" rx="83.69" ry="18"/>
<text text-anchor="middle" x="2177.27" y="-235.43" font-family="Times,serif" font-size="14.00">FIN 05/03/2021</text>
</g>
<!-- ID02 -->
<g id="node4" class="node">
<title>ID02</title>
<polygon fill="none" stroke="black" points="24.77,-313.63 24.77,-382.63 173.77,-382.63 173.77,-313.63 24.77,-313.63"/>
<text text-anchor="middle" x="50.27" y="-344.43" font-family="Times,serif" font-size="14.00">ID02</text>
<polyline fill="none" stroke="black" points="75.77,-313.63 75.77,-382.63 "/>
<text text-anchor="middle" x="124.77" y="-367.43" font-family="Times,serif" font-size="14.00">t_min=28h</text>
<polyline fill="none" stroke="black" points="75.77,-359.63 173.77,-359.63 "/>
<text text-anchor="middle" x="124.77" y="-344.43" font-family="Times,serif" font-size="14.00">t=40h</text>
<polyline fill="none" stroke="black" points="75.77,-336.63 173.77,-336.63 "/>
<text text-anchor="middle" x="124.77" y="-321.43" font-family="Times,serif" font-size="14.00">t_max=52h</text>
</g>
<!-- ID03 -->
<g id="node5" class="node">
<title>ID03</title>
<polygon fill="none" stroke="black" points="233.77,-363.63 233.77,-432.63 382.77,-432.63 382.77,-363.63 233.77,-363.63"/>
<text text-anchor="middle" x="259.27" y="-394.43" font-family="Times,serif" font-size="14.00">ID03</text>
<polyline fill="none" stroke="black" points="284.77,-363.63 284.77,-432.63 "/>
<text text-anchor="middle" x="333.77" y="-417.43" font-family="Times,serif" font-size="14.00">t_min=42h</text>
<polyline fill="none" stroke="black" points="284.77,-409.63 382.77,-409.63 "/>
<text text-anchor="middle" x="333.77" y="-394.43" font-family="Times,serif" font-size="14.00">t=60h</text>
<polyline fill="none" stroke="black" points="284.77,-386.63 382.77,-386.63 "/>
<text text-anchor="middle" x="333.77" y="-371.43" font-family="Times,serif" font-size="14.00">t_max=78h</text>
</g>
<!-- ID02&#45;&gt;ID03 -->
<g id="edge3" class="edge">
<title>ID02&#45;&gt;ID03</title>
<path fill="none" stroke="black" d="M173.84,-373.13C173.84,-373.13 223.73,-373.13 223.73,-373.13"/>
<polygon fill="black" stroke="black" points="223.73,-376.63 233.73,-373.13 223.73,-369.63 223.73,-376.63"/>
</g>
<!-- ID04 -->
<g id="node6" class="node">
<title>ID04</title>
<polygon fill="none" stroke="black" points="233.77,-263.63 233.77,-332.63 382.77,-332.63 382.77,-263.63 233.77,-263.63"/>
<text text-anchor="middle" x="259.27" y="-294.43" font-family="Times,serif" font-size="14.00">ID04</text>
<polyline fill="none" stroke="black" points="284.77,-263.63 284.77,-332.63 "/>
<text text-anchor="middle" x="333.77" y="-317.43" font-family="Times,serif" font-size="14.00">t_min=42h</text>
<polyline fill="none" stroke="black" points="284.77,-309.63 382.77,-309.63 "/>
<text text-anchor="middle" x="333.77" y="-294.43" font-family="Times,serif" font-size="14.00">t=60h</text>
<polyline fill="none" stroke="black" points="284.77,-286.63 382.77,-286.63 "/>
<text text-anchor="middle" x="333.77" y="-271.43" font-family="Times,serif" font-size="14.00">t_max=78h</text>
</g>
<!-- ID02&#45;&gt;ID04 -->
<g id="edge4" class="edge">
<title>ID02&#45;&gt;ID04</title>
<path fill="none" stroke="black" d="M173.84,-323.13C173.84,-323.13 223.73,-323.13 223.73,-323.13"/>
<polygon fill="black" stroke="black" points="223.73,-326.63 233.73,-323.13 223.73,-319.63 223.73,-326.63"/>
</g>
<!-- MS01 -->
<g id="node21" class="node">
<title>MS01</title>
<polygon fill="none" stroke="black" points="418.77,-280.13 418.77,-316.13 477.77,-316.13 477.77,-280.13 418.77,-280.13"/>
<text text-anchor="middle" x="448.27" y="-294.43" font-family="Times,serif" font-size="14.00">MS01</text>
</g>
<!-- ID04&#45;&gt;MS01 -->
<g id="edge5" class="edge">
<title>ID04&#45;&gt;MS01</title>
<path fill="none" stroke="black" d="M382.78,-298.13C382.78,-298.13 408.52,-298.13 408.52,-298.13"/>
<polygon fill="black" stroke="black" points="408.52,-301.63 418.52,-298.13 408.52,-294.63 408.52,-301.63"/>
</g>
<!-- ID05 -->
<g id="node7" class="node">
<title>ID05</title>
<polygon fill="none" stroke="black" points="513.77,-263.63 513.77,-332.63 662.77,-332.63 662.77,-263.63 513.77,-263.63"/>
<text text-anchor="middle" x="539.27" y="-294.43" font-family="Times,serif" font-size="14.00">ID05</text>
<polyline fill="none" stroke="black" points="564.77,-263.63 564.77,-332.63 "/>
<text text-anchor="middle" x="613.77" y="-317.43" font-family="Times,serif" font-size="14.00">t_min=42h</text>
<polyline fill="none" stroke="black" points="564.77,-309.63 662.77,-309.63 "/>
<text text-anchor="middle" x="613.77" y="-294.43" font-family="Times,serif" font-size="14.00">t=60h</text>
<polyline fill="none" stroke="black" points="564.77,-286.63 662.77,-286.63 "/>
<text text-anchor="middle" x="613.77" y="-271.43" font-family="Times,serif" font-size="14.00">t_max=78h</text>
</g>
<!-- ID06 -->
<g id="node8" class="node">
<title>ID06</title>
<polygon fill="none" stroke="black" points="698.77,-304.63 698.77,-373.63 847.77,-373.63 847.77,-304.63 698.77,-304.63"/>
<text text-anchor="middle" x="724.27" y="-335.43" font-family="Times,serif" font-size="14.00">ID06</text>
<polyline fill="none" stroke="black" points="749.77,-304.63 749.77,-373.63 "/>
<text text-anchor="middle" x="798.77" y="-358.43" font-family="Times,serif" font-size="14.00">t_min=28h</text>
<polyline fill="none" stroke="black" points="749.77,-350.63 847.77,-350.63 "/>
<text text-anchor="middle" x="798.77" y="-335.43" font-family="Times,serif" font-size="14.00">t=40h</text>
<polyline fill="none" stroke="black" points="749.77,-327.63 847.77,-327.63 "/>
<text text-anchor="middle" x="798.77" y="-312.43" font-family="Times,serif" font-size="14.00">t_max=52h</text>
</g>
<!-- ID05&#45;&gt;ID06 -->
<g id="edge8" class="edge">
<title>ID05&#45;&gt;ID06</title>
<path fill="none" stroke="black" d="M662.98,-318.63C662.98,-318.63 688.58,-318.63 688.58,-318.63"/>
<polygon fill="black" stroke="black" points="688.58,-322.13 698.58,-318.63 688.58,-315.13 688.58,-322.13"/>
</g>
<!-- MS02 -->
<g id="node22" class="node">
<title>MS02</title>
<polygon fill="none" stroke="black" points="743.77,-239.13 743.77,-275.13 802.77,-275.13 802.77,-239.13 743.77,-239.13"/>
<text text-anchor="middle" x="773.27" y="-253.43" font-family="Times,serif" font-size="14.00">MS02</text>
</g>
<!-- ID05&#45;&gt;MS02 -->
<g id="edge7" class="edge">
<title>ID05&#45;&gt;MS02</title>
<path fill="none" stroke="black" d="M662.98,-269.38C662.98,-269.38 733.62,-269.38 733.62,-269.38"/>
<polygon fill="black" stroke="black" points="733.62,-272.88 743.62,-269.38 733.62,-265.88 733.62,-272.88"/>
</g>
<!-- ID07 -->
<g id="node9" class="node">
<title>ID07</title>
<polygon fill="none" stroke="black" points="883.77,-603.63 883.77,-672.63 1032.77,-672.63 1032.77,-603.63 883.77,-603.63"/>
<text text-anchor="middle" x="909.27" y="-634.43" font-family="Times,serif" font-size="14.00">ID07</text>
<polyline fill="none" stroke="black" points="934.77,-603.63 934.77,-672.63 "/>
<text text-anchor="middle" x="983.77" y="-657.43" font-family="Times,serif" font-size="14.00">t_min=42h</text>
<polyline fill="none" stroke="black" points="934.77,-649.63 1032.77,-649.63 "/>
<text text-anchor="middle" x="983.77" y="-634.43" font-family="Times,serif" font-size="14.00">t=60h</text>
<polyline fill="none" stroke="black" points="934.77,-626.63 1032.77,-626.63 "/>
<text text-anchor="middle" x="983.77" y="-611.43" font-family="Times,serif" font-size="14.00">t_max=78h</text>
</g>
<!-- ID06&#45;&gt;ID07 -->
<g id="edge9" class="edge">
<title>ID06&#45;&gt;ID07</title>
<path fill="none" stroke="black" d="M736.27,-373.72C736.27,-452.43 736.27,-638.13 736.27,-638.13 736.27,-638.13 873.73,-638.13 873.73,-638.13"/>
<polygon fill="black" stroke="black" points="873.73,-641.63 883.73,-638.13 873.73,-634.63 873.73,-641.63"/>
</g>
<!-- ID08 -->
<g id="node10" class="node">
<title>ID08</title>
<polygon fill="none" stroke="black" points="883.77,-504.63 883.77,-573.63 1032.77,-573.63 1032.77,-504.63 883.77,-504.63"/>
<text text-anchor="middle" x="909.27" y="-535.43" font-family="Times,serif" font-size="14.00">ID08</text>
<polyline fill="none" stroke="black" points="934.77,-504.63 934.77,-573.63 "/>
<text text-anchor="middle" x="983.77" y="-558.43" font-family="Times,serif" font-size="14.00">t_min=14h</text>
<polyline fill="none" stroke="black" points="934.77,-550.63 1032.77,-550.63 "/>
<text text-anchor="middle" x="983.77" y="-535.43" font-family="Times,serif" font-size="14.00">t=20h</text>
<polyline fill="none" stroke="black" points="934.77,-527.63 1032.77,-527.63 "/>
<text text-anchor="middle" x="983.77" y="-512.43" font-family="Times,serif" font-size="14.00">t_max=26h</text>
</g>
<!-- ID06&#45;&gt;ID08 -->
<g id="edge10" class="edge">
<title>ID06&#45;&gt;ID08</title>
<path fill="none" stroke="black" d="M773.27,-373.97C773.27,-431.27 773.27,-539.13 773.27,-539.13 773.27,-539.13 873.55,-539.13 873.55,-539.13"/>
<polygon fill="black" stroke="black" points="873.55,-542.63 883.55,-539.13 873.55,-535.63 873.55,-542.63"/>
</g>
<!-- ID09 -->
<g id="node11" class="node">
<title>ID09</title>
<polygon fill="none" stroke="black" points="883.77,-404.63 883.77,-473.63 1032.77,-473.63 1032.77,-404.63 883.77,-404.63"/>
<text text-anchor="middle" x="909.27" y="-435.43" font-family="Times,serif" font-size="14.00">ID09</text>
<polyline fill="none" stroke="black" points="934.77,-404.63 934.77,-473.63 "/>
<text text-anchor="middle" x="983.77" y="-458.43" font-family="Times,serif" font-size="14.00">t_min=14h</text>
<polyline fill="none" stroke="black" points="934.77,-450.63 1032.77,-450.63 "/>
<text text-anchor="middle" x="983.77" y="-435.43" font-family="Times,serif" font-size="14.00">t=20h</text>
<polyline fill="none" stroke="black" points="934.77,-427.63 1032.77,-427.63 "/>
<text text-anchor="middle" x="983.77" y="-412.43" font-family="Times,serif" font-size="14.00">t_max=26h</text>
</g>
<!-- ID06&#45;&gt;ID09 -->
<g id="edge11" class="edge">
<title>ID06&#45;&gt;ID09</title>
<path fill="none" stroke="black" d="M811.27,-373.77C811.27,-395.19 811.27,-418.63 811.27,-418.63 811.27,-418.63 873.48,-418.63 873.48,-418.63"/>
<polygon fill="black" stroke="black" points="873.48,-422.13 883.48,-418.63 873.48,-415.13 873.48,-422.13"/>
</g>
<!-- ID10 -->
<g id="node12" class="node">
<title>ID10</title>
<polygon fill="none" stroke="black" points="883.77,-304.63 883.77,-373.63 1032.77,-373.63 1032.77,-304.63 883.77,-304.63"/>
<text text-anchor="middle" x="909.27" y="-335.43" font-family="Times,serif" font-size="14.00">ID10</text>
<polyline fill="none" stroke="black" points="934.77,-304.63 934.77,-373.63 "/>
<text text-anchor="middle" x="983.77" y="-358.43" font-family="Times,serif" font-size="14.00">t_min=14h</text>
<polyline fill="none" stroke="black" points="934.77,-350.63 1032.77,-350.63 "/>
<text text-anchor="middle" x="983.77" y="-335.43" font-family="Times,serif" font-size="14.00">t=20h</text>
<polyline fill="none" stroke="black" points="934.77,-327.63 1032.77,-327.63 "/>
<text text-anchor="middle" x="983.77" y="-312.43" font-family="Times,serif" font-size="14.00">t_max=26h</text>
</g>
<!-- ID06&#45;&gt;ID10 -->
<g id="edge12" class="edge">
<title>ID06&#45;&gt;ID10</title>
<path fill="none" stroke="black" d="M847.98,-339.13C847.98,-339.13 873.58,-339.13 873.58,-339.13"/>
<polygon fill="black" stroke="black" points="873.58,-342.63 883.58,-339.13 873.58,-335.63 873.58,-342.63"/>
</g>
<!-- ID11 -->
<g id="node13" class="node">
<title>ID11</title>
<polygon fill="none" stroke="black" points="883.77,-204.63 883.77,-273.63 1032.77,-273.63 1032.77,-204.63 883.77,-204.63"/>
<text text-anchor="middle" x="909.27" y="-235.43" font-family="Times,serif" font-size="14.00">ID11</text>
<polyline fill="none" stroke="black" points="934.77,-204.63 934.77,-273.63 "/>
<text text-anchor="middle" x="983.77" y="-258.43" font-family="Times,serif" font-size="14.00">t_min=14h</text>
<polyline fill="none" stroke="black" points="934.77,-250.63 1032.77,-250.63 "/>
<text text-anchor="middle" x="983.77" y="-235.43" font-family="Times,serif" font-size="14.00">t=20h</text>
<polyline fill="none" stroke="black" points="934.77,-227.63 1032.77,-227.63 "/>
<text text-anchor="middle" x="983.77" y="-212.43" font-family="Times,serif" font-size="14.00">t_max=26h</text>
</g>
<!-- ID06&#45;&gt;ID11 -->
<g id="edge13" class="edge">
<title>ID06&#45;&gt;ID11</title>
<path fill="none" stroke="black" d="M837.27,-304.52C837.27,-281.84 837.27,-256.38 837.27,-256.38 837.27,-256.38 873.7,-256.38 873.7,-256.38"/>
<polygon fill="black" stroke="black" points="873.7,-259.88 883.7,-256.38 873.7,-252.88 873.7,-259.88"/>
</g>
<!-- ID12 -->
<g id="node14" class="node">
<title>ID12</title>
<polygon fill="none" stroke="black" points="883.77,-104.63 883.77,-173.63 1032.77,-173.63 1032.77,-104.63 883.77,-104.63"/>
<text text-anchor="middle" x="909.27" y="-135.43" font-family="Times,serif" font-size="14.00">ID12</text>
<polyline fill="none" stroke="black" points="934.77,-104.63 934.77,-173.63 "/>
<text text-anchor="middle" x="983.77" y="-158.43" font-family="Times,serif" font-size="14.00">t_min=21h</text>
<polyline fill="none" stroke="black" points="934.77,-150.63 1032.77,-150.63 "/>
<text text-anchor="middle" x="983.77" y="-135.43" font-family="Times,serif" font-size="14.00">t=30h</text>
<polyline fill="none" stroke="black" points="934.77,-127.63 1032.77,-127.63 "/>
<text text-anchor="middle" x="983.77" y="-112.43" font-family="Times,serif" font-size="14.00">t_max=39h</text>
</g>
<!-- ID06&#45;&gt;ID12 -->
<g id="edge14" class="edge">
<title>ID06&#45;&gt;ID12</title>
<path fill="none" stroke="black" d="M825.27,-304.63C825.27,-254.81 825.27,-168.63 825.27,-168.63 825.27,-168.63 873.6,-168.63 873.6,-168.63"/>
<polygon fill="black" stroke="black" points="873.6,-172.13 883.6,-168.63 873.6,-165.13 873.6,-172.13"/>
</g>
<!-- ID13 -->
<g id="node15" class="node">
<title>ID13</title>
<polygon fill="none" stroke="black" points="883.77,-5.63 883.77,-74.63 1032.77,-74.63 1032.77,-5.63 883.77,-5.63"/>
<text text-anchor="middle" x="909.27" y="-36.43" font-family="Times,serif" font-size="14.00">ID13</text>
<polyline fill="none" stroke="black" points="934.77,-5.63 934.77,-74.63 "/>
<text text-anchor="middle" x="983.77" y="-59.43" font-family="Times,serif" font-size="14.00">t_min=21h</text>
<polyline fill="none" stroke="black" points="934.77,-51.63 1032.77,-51.63 "/>
<text text-anchor="middle" x="983.77" y="-36.43" font-family="Times,serif" font-size="14.00">t=30h</text>
<polyline fill="none" stroke="black" points="934.77,-28.63 1032.77,-28.63 "/>
<text text-anchor="middle" x="983.77" y="-13.43" font-family="Times,serif" font-size="14.00">t_max=39h</text>
</g>
<!-- ID06&#45;&gt;ID13 -->
<g id="edge15" class="edge">
<title>ID06&#45;&gt;ID13</title>
<path fill="none" stroke="black" d="M814.27,-304.54C814.27,-225.84 814.27,-40.13 814.27,-40.13 814.27,-40.13 873.74,-40.13 873.74,-40.13"/>
<polygon fill="black" stroke="black" points="873.74,-43.63 883.74,-40.13 873.74,-36.63 873.74,-43.63"/>
</g>
<!-- ID14 -->
<g id="node16" class="node">
<title>ID14</title>
<polygon fill="none" stroke="black" points="1068.77,-204.63 1068.77,-273.63 1217.77,-273.63 1217.77,-204.63 1068.77,-204.63"/>
<text text-anchor="middle" x="1094.27" y="-235.43" font-family="Times,serif" font-size="14.00">ID14</text>
<polyline fill="none" stroke="black" points="1119.77,-204.63 1119.77,-273.63 "/>
<text text-anchor="middle" x="1168.77" y="-258.43" font-family="Times,serif" font-size="14.00">t_min=21h</text>
<polyline fill="none" stroke="black" points="1119.77,-250.63 1217.77,-250.63 "/>
<text text-anchor="middle" x="1168.77" y="-235.43" font-family="Times,serif" font-size="14.00">t=30h</text>
<polyline fill="none" stroke="black" points="1119.77,-227.63 1217.77,-227.63 "/>
<text text-anchor="middle" x="1168.77" y="-212.43" font-family="Times,serif" font-size="14.00">t_max=39h</text>
</g>
<!-- ID09&#45;&gt;ID14 -->
<g id="edge16" class="edge">
<title>ID09&#45;&gt;ID14</title>
<path fill="none" stroke="black" d="M1032.9,-439.13C1093.26,-439.13 1168.27,-439.13 1168.27,-439.13 1168.27,-439.13 1168.27,-283.97 1168.27,-283.97"/>
<polygon fill="black" stroke="black" points="1171.77,-283.97 1168.27,-273.97 1164.77,-283.97 1171.77,-283.97"/>
</g>
<!-- ID10&#45;&gt;ID14 -->
<g id="edge17" class="edge">
<title>ID10&#45;&gt;ID14</title>
<path fill="none" stroke="black" d="M1033.11,-339.13C1075.16,-339.13 1119.27,-339.13 1119.27,-339.13 1119.27,-339.13 1119.27,-283.83 1119.27,-283.83"/>
<polygon fill="black" stroke="black" points="1122.77,-283.83 1119.27,-273.83 1115.77,-283.83 1122.77,-283.83"/>
</g>
<!-- ID11&#45;&gt;ID14 -->
<g id="edge18" class="edge">
<title>ID11&#45;&gt;ID14</title>
<path fill="none" stroke="black" d="M1032.98,-239.13C1032.98,-239.13 1058.58,-239.13 1058.58,-239.13"/>
<polygon fill="black" stroke="black" points="1058.58,-242.63 1068.58,-239.13 1058.58,-235.63 1058.58,-242.63"/>
</g>
<!-- ID12&#45;&gt;ID14 -->
<g id="edge19" class="edge">
<title>ID12&#45;&gt;ID14</title>
<path fill="none" stroke="black" d="M1033.11,-139.13C1075.16,-139.13 1119.27,-139.13 1119.27,-139.13 1119.27,-139.13 1119.27,-194.44 1119.27,-194.44"/>
<polygon fill="black" stroke="black" points="1115.77,-194.44 1119.27,-204.44 1122.77,-194.44 1115.77,-194.44"/>
</g>
<!-- ID13&#45;&gt;ID14 -->
<g id="edge20" class="edge">
<title>ID13&#45;&gt;ID14</title>
<path fill="none" stroke="black" d="M1032.9,-40.13C1093.26,-40.13 1168.27,-40.13 1168.27,-40.13 1168.27,-40.13 1168.27,-194.47 1168.27,-194.47"/>
<polygon fill="black" stroke="black" points="1164.77,-194.47 1168.27,-204.47 1171.77,-194.47 1164.77,-194.47"/>
</g>
<!-- MS03 -->
<g id="node23" class="node">
<title>MS03</title>
<polygon fill="none" stroke="black" points="1253.77,-221.13 1253.77,-257.13 1312.77,-257.13 1312.77,-221.13 1253.77,-221.13"/>
<text text-anchor="middle" x="1283.27" y="-235.43" font-family="Times,serif" font-size="14.00">MS03</text>
</g>
<!-- ID14&#45;&gt;MS03 -->
<g id="edge21" class="edge">
<title>ID14&#45;&gt;MS03</title>
<path fill="none" stroke="black" d="M1217.78,-239.13C1217.78,-239.13 1243.52,-239.13 1243.52,-239.13"/>
<polygon fill="black" stroke="black" points="1243.52,-242.63 1253.52,-239.13 1243.52,-235.63 1243.52,-242.63"/>
</g>
<!-- ID15 -->
<g id="node17" class="node">
<title>ID15</title>
<polygon fill="none" stroke="black" points="1348.77,-204.63 1348.77,-273.63 1497.77,-273.63 1497.77,-204.63 1348.77,-204.63"/>
<text text-anchor="middle" x="1374.27" y="-235.43" font-family="Times,serif" font-size="14.00">ID15</text>
<polyline fill="none" stroke="black" points="1399.77,-204.63 1399.77,-273.63 "/>
<text text-anchor="middle" x="1448.77" y="-258.43" font-family="Times,serif" font-size="14.00">t_min=21h</text>
<polyline fill="none" stroke="black" points="1399.77,-250.63 1497.77,-250.63 "/>
<text text-anchor="middle" x="1448.77" y="-235.43" font-family="Times,serif" font-size="14.00">t=30h</text>
<polyline fill="none" stroke="black" points="1399.77,-227.63 1497.77,-227.63 "/>
<text text-anchor="middle" x="1448.77" y="-212.43" font-family="Times,serif" font-size="14.00">t_max=39h</text>
</g>
<!-- MS04 -->
<g id="node24" class="node">
<title>MS04</title>
<polygon fill="none" stroke="black" points="1533.77,-221.13 1533.77,-257.13 1592.77,-257.13 1592.77,-221.13 1533.77,-221.13"/>
<text text-anchor="middle" x="1563.27" y="-235.43" font-family="Times,serif" font-size="14.00">MS04</text>
</g>
<!-- ID15&#45;&gt;MS04 -->
<g id="edge23" class="edge">
<title>ID15&#45;&gt;MS04</title>
<path fill="none" stroke="black" d="M1497.78,-239.13C1497.78,-239.13 1523.52,-239.13 1523.52,-239.13"/>
<polygon fill="black" stroke="black" points="1523.52,-242.63 1533.52,-239.13 1523.52,-235.63 1523.52,-242.63"/>
</g>
<!-- ID16 -->
<g id="node18" class="node">
<title>ID16</title>
<polygon fill="none" stroke="black" points="1628.77,-204.63 1628.77,-273.63 1777.77,-273.63 1777.77,-204.63 1628.77,-204.63"/>
<text text-anchor="middle" x="1654.27" y="-235.43" font-family="Times,serif" font-size="14.00">ID16</text>
<polyline fill="none" stroke="black" points="1679.77,-204.63 1679.77,-273.63 "/>
<text text-anchor="middle" x="1728.77" y="-258.43" font-family="Times,serif" font-size="14.00">t_min=21h</text>
<polyline fill="none" stroke="black" points="1679.77,-250.63 1777.77,-250.63 "/>
<text text-anchor="middle" x="1728.77" y="-235.43" font-family="Times,serif" font-size="14.00">t=30h</text>
<polyline fill="none" stroke="black" points="1679.77,-227.63 1777.77,-227.63 "/>
<text text-anchor="middle" x="1728.77" y="-212.43" font-family="Times,serif" font-size="14.00">t_max=39h</text>
</g>
<!-- ID17 -->
<g id="node19" class="node">
<title>ID17</title>
<polygon fill="none" stroke="black" points="1813.77,-204.63 1813.77,-273.63 1962.77,-273.63 1962.77,-204.63 1813.77,-204.63"/>
<text text-anchor="middle" x="1839.27" y="-235.43" font-family="Times,serif" font-size="14.00">ID17</text>
<polyline fill="none" stroke="black" points="1864.77,-204.63 1864.77,-273.63 "/>
<text text-anchor="middle" x="1913.77" y="-258.43" font-family="Times,serif" font-size="14.00">t_min=21h</text>
<polyline fill="none" stroke="black" points="1864.77,-250.63 1962.77,-250.63 "/>
<text text-anchor="middle" x="1913.77" y="-235.43" font-family="Times,serif" font-size="14.00">t=30h</text>
<polyline fill="none" stroke="black" points="1864.77,-227.63 1962.77,-227.63 "/>
<text text-anchor="middle" x="1913.77" y="-212.43" font-family="Times,serif" font-size="14.00">t_max=39h</text>
</g>
<!-- ID16&#45;&gt;ID17 -->
<g id="edge25" class="edge">
<title>ID16&#45;&gt;ID17</title>
<path fill="none" stroke="black" d="M1777.98,-239.13C1777.98,-239.13 1803.58,-239.13 1803.58,-239.13"/>
<polygon fill="black" stroke="black" points="1803.58,-242.63 1813.58,-239.13 1803.58,-235.63 1803.58,-242.63"/>
</g>
<!-- MS05 -->
<g id="node20" class="node">
<title>MS05</title>
<polygon fill="none" stroke="black" points="1998.77,-221.13 1998.77,-257.13 2057.77,-257.13 2057.77,-221.13 1998.77,-221.13"/>
<text text-anchor="middle" x="2028.27" y="-235.43" font-family="Times,serif" font-size="14.00">MS05</text>
</g>
<!-- ID17&#45;&gt;MS05 -->
<g id="edge26" class="edge">
<title>ID17&#45;&gt;MS05</title>
<path fill="none" stroke="black" d="M1962.78,-239.13C1962.78,-239.13 1988.52,-239.13 1988.52,-239.13"/>
<polygon fill="black" stroke="black" points="1988.52,-242.63 1998.52,-239.13 1988.52,-235.63 1988.52,-242.63"/>
</g>
<!-- MS05&#45;&gt;eop -->
<g id="edge2" class="edge">
<title>MS05&#45;&gt;eop</title>
<path fill="none" stroke="black" d="M2058.06,-239.13C2058.06,-239.13 2083.18,-239.13 2083.18,-239.13"/>
<polygon fill="black" stroke="black" points="2083.18,-242.63 2093.18,-239.13 2083.18,-235.63 2083.18,-242.63"/>
</g>
<!-- MS01&#45;&gt;ID05 -->
<g id="edge6" class="edge">
<title>MS01&#45;&gt;ID05</title>
<path fill="none" stroke="black" d="M477.96,-298.13C477.96,-298.13 503.68,-298.13 503.68,-298.13"/>
<polygon fill="black" stroke="black" points="503.68,-301.63 513.68,-298.13 503.68,-294.63 503.68,-301.63"/>
</g>
<!-- MS03&#45;&gt;ID15 -->
<g id="edge22" class="edge">
<title>MS03&#45;&gt;ID15</title>
<path fill="none" stroke="black" d="M1312.96,-239.13C1312.96,-239.13 1338.68,-239.13 1338.68,-239.13"/>
<polygon fill="black" stroke="black" points="1338.68,-242.63 1348.68,-239.13 1338.68,-235.63 1338.68,-242.63"/>
</g>
<!-- MS04&#45;&gt;ID16 -->
<g id="edge24" class="edge">
<title>MS04&#45;&gt;ID16</title>
<path fill="none" stroke="black" d="M1592.96,-239.13C1592.96,-239.13 1618.68,-239.13 1618.68,-239.13"/>
<polygon fill="black" stroke="black" points="1618.68,-242.63 1628.68,-239.13 1618.68,-235.63 1618.68,-242.63"/>
</g>
</g>
</svg>
