<?xml version="1.0" encoding="UTF-8" standalone="no"?>
<!DOCTYPE svg PUBLIC "-//W3C//DTD SVG 1.1//EN"
 "http://www.w3.org/Graphics/SVG/1.1/DTD/svg11.dtd">
<!-- Generated by graphviz version 2.43.0 (0)
 -->
<!-- Title: finite_state_machine Pages: 1 -->
<svg width="576pt" height="249pt"
 viewBox="0.00 0.00 576.00 249.47" xmlns="http://www.w3.org/2000/svg" xmlns:xlink="http://www.w3.org/1999/xlink">
<g id="graph0" class="graph" transform="scale(1.39 1.39) rotate(0) translate(4 343.59)">
<title>finite_state_machine</title>
<polygon fill="white" stroke="transparent" points="-4,4 -4,-343.59 798.56,-343.59 798.56,4 -4,4"/>
<!-- LR_0 -->
<g id="node1" class="node">
<title>LR_0</title>
<ellipse fill="none" stroke="black" cx="37.8" cy="-87.8" rx="33.62" ry="33.62"/>
<ellipse fill="none" stroke="black" cx="37.8" cy="-87.8" rx="37.6" ry="37.6"/>
<text text-anchor="middle" x="37.8" y="-84.1" font-family="Times,serif" font-size="14.00">LR_0</text>
</g>
<!-- LR_2 -->
<g id="node5" class="node">
<title>LR_2</title>
<ellipse fill="none" stroke="black" cx="185.39" cy="-157.8" rx="33.6" ry="33.6"/>
<text text-anchor="middle" x="185.39" y="-154.1" font-family="Times,serif" font-size="14.00">LR_2</text>
</g>
<!-- LR_0&#45;&gt;LR_2 -->
<g id="edge1" class="edge">
<title>LR_0&#45;&gt;LR_2</title>
<path fill="none" stroke="black" d="M72.2,-103.86C94.04,-114.36 122.65,-128.11 145.51,-139.11"/>
<polygon fill="black" stroke="black" points="144.07,-142.3 154.6,-143.48 147.11,-135.99 144.07,-142.3"/>
<text text-anchor="middle" x="113.59" y="-136.6" font-family="Times,serif" font-size="14.00">SS(B)</text>
</g>
<!-- LR_1 -->
<g id="node6" class="node">
<title>LR_1</title>
<ellipse fill="none" stroke="black" cx="185.39" cy="-44.8" rx="33.6" ry="33.6"/>
<text text-anchor="middle" x="185.39" y="-41.1" font-family="Times,serif" font-size="14.00">LR_1</text>
</g>
<!-- LR_0&#45;&gt;LR_1 -->
<g id="edge2" class="edge">
<title>LR_0&#45;&gt;LR_1</title>
<path fill="none" stroke="black" d="M74.41,-77.28C95.05,-71.18 121.14,-63.48 142.73,-57.1"/>
<polygon fill="black" stroke="black" points="144.01,-60.37 152.61,-54.18 142.03,-53.66 144.01,-60.37"/>
<text text-anchor="middle" x="113.59" y="-75.6" font-family="Times,serif" font-size="14.00">SS(S)</text>
</g>
<!-- LR_3 -->
<g id="node2" class="node">
<title>LR_3</title>
<ellipse fill="none" stroke="black" cx="348.99" cy="-37.8" rx="33.62" ry="33.62"/>
<ellipse fill="none" stroke="black" cx="348.99" cy="-37.8" rx="37.6" ry="37.6"/>
<text text-anchor="middle" x="348.99" y="-34.1" font-family="Times,serif" font-size="14.00">LR_3</text>
</g>
<!-- LR_4 -->
<g id="node3" class="node">
<title>LR_4</title>
<ellipse fill="none" stroke="black" cx="348.99" cy="-301.8" rx="33.62" ry="33.62"/>
<ellipse fill="none" stroke="black" cx="348.99" cy="-301.8" rx="37.6" ry="37.6"/>
<text text-anchor="middle" x="348.99" y="-298.1" font-family="Times,serif" font-size="14.00">LR_4</text>
</g>
<!-- LR_8 -->
<g id="node4" class="node">
<title>LR_8</title>
<ellipse fill="none" stroke="black" cx="756.77" cy="-158.8" rx="33.62" ry="33.62"/>
<ellipse fill="none" stroke="black" cx="756.77" cy="-158.8" rx="37.6" ry="37.6"/>
<text text-anchor="middle" x="756.77" y="-155.1" font-family="Times,serif" font-size="14.00">LR_8</text>
</g>
<!-- LR_6 -->
<g id="node7" class="node">
<title>LR_6</title>
<ellipse fill="none" stroke="black" cx="348.99" cy="-178.8" rx="33.6" ry="33.6"/>
<text text-anchor="middle" x="348.99" y="-175.1" font-family="Times,serif" font-size="14.00">LR_6</text>
</g>
<!-- LR_8&#45;&gt;LR_6 -->
<g id="edge13" class="edge">
<title>LR_8&#45;&gt;LR_6</title>
<path fill="none" stroke="black" d="M719.35,-165.57C662.4,-175.42 548.7,-192.07 451.78,-187.8 432.43,-186.94 411.07,-185.18 392.93,-183.44"/>
<polygon fill="black" stroke="black" points="393.24,-179.95 382.94,-182.45 392.55,-186.92 393.24,-179.95"/>
<text text-anchor="middle" x="552.38" y="-190.6" font-family="Times,serif" font-size="14.00">S(b)</text>
</g>
<!-- LR_5 -->
<g id="node8" class="node">
<title>LR_5</title>
<ellipse fill="none" stroke="black" cx="485.58" cy="-111.8" rx="33.6" ry="33.6"/>
<text text-anchor="middle" x="485.58" y="-108.1" font-family="Times,serif" font-size="14.00">LR_5</text>
</g>
<!-- LR_8&#45;&gt;LR_5 -->
<g id="edge14" class="edge">
<title>LR_8&#45;&gt;LR_5</title>
<path fill="none" stroke="black" d="M719.13,-153.45C684.57,-148.3 631.36,-140.09 585.38,-131.8 566.8,-128.45 546.35,-124.37 528.89,-120.77"/>
<polygon fill="black" stroke="black" points="529.5,-117.33 519,-118.72 528.08,-124.18 529.5,-117.33"/>
<text text-anchor="middle" x="619.17" y="-146.6" font-family="Times,serif" font-size="14.00">S(a)</text>
</g>
<!-- LR_2&#45;&gt;LR_4 -->
<g id="edge6" class="edge">
<title>LR_2&#45;&gt;LR_4</title>
<path fill="none" stroke="black" d="M211.29,-179.98C238.38,-204.13 281.93,-242.94 312.58,-270.25"/>
<polygon fill="black" stroke="black" points="310.28,-272.89 320.08,-276.93 314.94,-267.66 310.28,-272.89"/>
<text text-anchor="middle" x="265.19" y="-254.6" font-family="Times,serif" font-size="14.00">S(A)</text>
</g>
<!-- LR_2&#45;&gt;LR_6 -->
<g id="edge4" class="edge">
<title>LR_2&#45;&gt;LR_6</title>
<path fill="none" stroke="black" d="M219.09,-162.05C243.95,-165.28 278.36,-169.75 305.38,-173.26"/>
<polygon fill="black" stroke="black" points="304.96,-176.74 315.33,-174.55 305.87,-169.79 304.96,-176.74"/>
<text text-anchor="middle" x="265.19" y="-174.6" font-family="Times,serif" font-size="14.00">SS(b)</text>
</g>
<!-- LR_2&#45;&gt;LR_5 -->
<g id="edge5" class="edge">
<title>LR_2&#45;&gt;LR_5</title>
<path fill="none" stroke="black" d="M217.45,-146.35C242.41,-137.71 278.56,-126.4 311.19,-120.8 355.07,-113.26 406.04,-111.43 441.31,-111.22"/>
<polygon fill="black" stroke="black" points="441.73,-114.72 451.73,-111.21 441.72,-107.72 441.73,-114.72"/>
<text text-anchor="middle" x="348.99" y="-124.6" font-family="Times,serif" font-size="14.00">SS(a)</text>
</g>
<!-- LR_1&#45;&gt;LR_3 -->
<g id="edge3" class="edge">
<title>LR_1&#45;&gt;LR_3</title>
<path fill="none" stroke="black" d="M219.48,-43.36C242.96,-42.35 274.81,-40.97 300.92,-39.84"/>
<polygon fill="black" stroke="black" points="301.15,-43.33 310.99,-39.4 300.85,-36.34 301.15,-43.33"/>
<text text-anchor="middle" x="265.19" y="-46.6" font-family="Times,serif" font-size="14.00">S($end)</text>
</g>
<!-- LR_6&#45;&gt;LR_6 -->
<g id="edge9" class="edge">
<title>LR_6&#45;&gt;LR_6</title>
<path fill="none" stroke="black" d="M335.87,-210.15C335.59,-221.41 339.96,-230.59 348.99,-230.59 355.05,-230.59 359.01,-226.45 360.87,-220.31"/>
<polygon fill="black" stroke="black" points="364.37,-220.5 362.1,-210.15 357.43,-219.66 364.37,-220.5"/>
<text text-anchor="middle" x="348.99" y="-234.39" font-family="Times,serif" font-size="14.00">S(b)</text>
</g>
<!-- LR_6&#45;&gt;LR_5 -->
<g id="edge10" class="edge">
<title>LR_6&#45;&gt;LR_5</title>
<path fill="none" stroke="black" d="M379.52,-164.09C399.07,-154.36 424.9,-141.5 446.06,-130.97"/>
<polygon fill="black" stroke="black" points="447.72,-134.06 455.11,-126.47 444.6,-127.79 447.72,-134.06"/>
<text text-anchor="middle" x="419.28" y="-154.6" font-family="Times,serif" font-size="14.00">S(a)</text>
</g>
<!-- LR_5&#45;&gt;LR_5 -->
<g id="edge8" class="edge">
<title>LR_5&#45;&gt;LR_5</title>
<path fill="none" stroke="black" d="M473.21,-143.41C473.01,-154.55 477.14,-163.59 485.58,-163.59 491.25,-163.59 494.97,-159.51 496.75,-153.45"/>
<polygon fill="black" stroke="black" points="500.24,-153.75 497.95,-143.41 493.29,-152.92 500.24,-153.75"/>
<text text-anchor="middle" x="485.58" y="-167.39" font-family="Times,serif" font-size="14.00">S(a)</text>
</g>
<!-- LR_7 -->
<g id="node9" class="node">
<title>LR_7</title>
<ellipse fill="none" stroke="black" cx="619.17" cy="-88.8" rx="33.6" ry="33.6"/>
<text text-anchor="middle" x="619.17" y="-85.1" font-family="Times,serif" font-size="14.00">LR_7</text>
</g>
<!-- LR_5&#45;&gt;LR_7 -->
<g id="edge7" class="edge">
<title>LR_5&#45;&gt;LR_7</title>
<path fill="none" stroke="black" d="M519.11,-106.11C536.19,-103.13 557.33,-99.43 575.69,-96.22"/>
<polygon fill="black" stroke="black" points="576.31,-99.67 585.56,-94.5 575.11,-92.77 576.31,-99.67"/>
<text text-anchor="middle" x="552.38" y="-106.6" font-family="Times,serif" font-size="14.00">S(b)</text>
</g>
<!-- LR_7&#45;&gt;LR_8 -->
<g id="edge11" class="edge">
<title>LR_7&#45;&gt;LR_8</title>
<path fill="none" stroke="black" d="M649.78,-103.67C665.1,-111.4 684.07,-121.04 700.97,-129.8 705.23,-132 709.66,-134.32 714.08,-136.64"/>
<polygon fill="black" stroke="black" points="712.59,-139.81 723.07,-141.38 715.86,-133.62 712.59,-139.81"/>
<text text-anchor="middle" x="685.97" y="-133.6" font-family="Times,serif" font-size="14.00">S(b)</text>
</g>
<!-- LR_7&#45;&gt;LR_5 -->
<g id="edge12" class="edge">
<title>LR_7&#45;&gt;LR_5</title>
<path fill="none" stroke="black" d="M586.61,-79.67C571.48,-76.7 553.24,-75.22 537.38,-79.8 531.99,-81.35 526.63,-83.66 521.52,-86.35"/>
<polygon fill="black" stroke="black" points="519.53,-83.45 512.64,-91.49 523.04,-89.51 519.53,-83.45"/>
<text text-anchor="middle" x="552.38" y="-83.6" font-family="Times,serif" font-size="14.00">S(a)</text>
</g>
</g>
</svg>
